<?xml version="1.0" encoding="UTF-8"?>
<svg xmlns="http://www.w3.org/2000/svg" xmlns:xlink="http://www.w3.org/1999/xlink" width="1020pt" height="299.999988pt" viewBox="0 0 1020 299.999988" version="1.2">
<defs>
<clipPath id="clip1">
  <path d="M 23.398438 60 L 99 60 L 99 248 L 23.398438 248 Z M 23.398438 60 "/>
</clipPath>
<clipPath id="clip2">
  <path d="M 59 172 L 63 172 L 63 298.03125 L 59 298.03125 Z M 59 172 "/>
</clipPath>
<clipPath id="clip3">
  <path d="M 147 168 L 235.648438 168 L 235.648438 243 L 147 243 Z M 147 168 "/>
</clipPath>
<clipPath id="clip4">
  <path d="M 190 189 L 194 189 L 194 298.03125 L 190 298.03125 Z M 190 189 "/>
</clipPath>
<clipPath id="clip5">
  <path d="M 62 54.28125 L 190 54.28125 L 190 183 L 62 183 Z M 62 54.28125 "/>
</clipPath>
<clipPath id="clip6">
  <path d="M 100 82 L 154 82 L 154 298.03125 L 100 298.03125 Z M 100 82 "/>
</clipPath>
<clipPath id="clip7">
  <path d="M 979 147 L 989.519531 147 L 989.519531 164 L 979 164 Z M 979 147 "/>
</clipPath>
<clipPath id="clip8">
  <path d="M 802 267 L 818 267 L 818 269.242188 L 802 269.242188 Z M 802 267 "/>
</clipPath>
<clipPath id="clip9">
  <path d="M 779 267 L 795 267 L 795 269.242188 L 779 269.242188 Z M 779 267 "/>
</clipPath>
<clipPath id="clip10">
  <path d="M 920 136.492188 L 932 136.492188 L 932 149 L 920 149 Z M 920 136.492188 "/>
</clipPath>
<clipPath id="clip11">
  <path d="M 918 136.492188 L 925 136.492188 L 925 142 L 918 142 Z M 918 136.492188 "/>
</clipPath>
<clipPath id="clip12">
  <path d="M 905 259 L 924 259 L 924 269.242188 L 905 269.242188 Z M 905 259 "/>
</clipPath>
<clipPath id="clip13">
  <path d="M 861 267 L 881 267 L 881 269.242188 L 861 269.242188 Z M 861 267 "/>
</clipPath>
<clipPath id="clip14">
  <path d="M 730.253906 198 L 969 198 L 969 204 L 730.253906 204 Z M 730.253906 198 "/>
</clipPath>
<clipPath id="clip15">
  <path d="M 730.253906 202 L 733 202 L 733 269 L 730.253906 269 Z M 730.253906 202 "/>
</clipPath>
<clipPath id="clip16">
  <path d="M 264 211.199219 L 309.566406 211.199219 L 309.566406 293 L 264 293 Z M 264 211.199219 "/>
</clipPath>
<clipPath id="clip17">
  <path d="M 347 161.167969 L 417.578125 161.167969 L 417.578125 287 L 347 287 Z M 347 161.167969 "/>
</clipPath>
<clipPath id="clip18">
  <path d="M 310.328125 179 L 368 179 L 368 286 L 310.328125 286 Z M 310.328125 179 "/>
</clipPath>
<clipPath id="clip19">
  <path d="M 444 202.730469 L 490 202.730469 L 490 286 L 444 286 Z M 444 202.730469 "/>
</clipPath>
<clipPath id="clip20">
  <path d="M 420.027344 214 L 458 214 L 458 285 L 420.027344 285 Z M 420.027344 214 "/>
</clipPath>
<clipPath id="clip21">
  <path d="M 465 245 L 467 245 L 467 297.980469 L 465 297.980469 Z M 465 245 "/>
</clipPath>
</defs>
<g id="surface1">
<rect x="0" y="0" width="1020" height="299.999988" style="fill:rgb(100%,100%,100%);fill-opacity:1;stroke:none;"/>
<rect x="0" y="0" width="1020" height="299.999988" style="fill:rgb(100%,100%,100%);fill-opacity:1;stroke:none;"/>
<rect x="0" y="0" width="1020" height="299.999988" style="fill:rgb(17.649841%,80.778503%,53.729248%);fill-opacity:1;stroke:none;"/>
<path style=" stroke:none;fill-rule:nonzero;fill:rgb(90.979004%,46.269226%,32.939148%);fill-opacity:1;" d="M 69.882812 87.84375 C 70.300781 85.222656 70.824219 82.914062 71.347656 80.816406 C 70.300781 83.753906 69.460938 86.480469 69.042969 89.519531 C 69.359375 88.996094 69.671875 88.472656 69.882812 87.84375 Z M 69.882812 87.84375 "/>
<path style=" stroke:none;fill-rule:nonzero;fill:rgb(90.979004%,46.269226%,32.939148%);fill-opacity:1;" d="M 50.289062 80.921875 C 51.234375 84.695312 52.070312 89.414062 52.699219 94.871094 C 53.222656 89.519531 51.863281 85.324219 50.289062 80.921875 Z M 50.289062 80.921875 "/>
<g clip-path="url(#clip1)" clip-rule="nonzero">
<path style=" stroke:none;fill-rule:nonzero;fill:rgb(90.979004%,46.269226%,32.939148%);fill-opacity:1;" d="M 92.929688 191.144531 C 89.15625 182.019531 87.898438 176.566406 88.632812 169.855469 C 84.023438 166.5 79.9375 162.617188 76.375 158.214844 C 69.460938 149.613281 64.644531 139.125 62.96875 127.589844 C 62.546875 124.546875 62.234375 121.402344 62.234375 118.257812 C 62.234375 107.980469 64.644531 98.226562 68.9375 89.625 C 69.359375 86.585938 70.195312 83.859375 71.242188 80.921875 C 71.664062 79.558594 72.1875 78.195312 72.605469 76.832031 L 72.710938 76.832031 C 73.128906 75.675781 73.339844 74.3125 73.339844 73.054688 C 73.234375 66.132812 67.679688 60.574219 60.871094 60.574219 C 54.0625 60.574219 48.40625 66.132812 48.40625 73.054688 C 48.40625 74.417969 48.613281 75.675781 49.035156 76.832031 L 48.929688 76.832031 C 49.347656 78.300781 49.871094 79.558594 50.289062 80.921875 C 51.863281 85.429688 53.121094 89.625 52.699219 94.871094 C 51.96875 102.316406 47.671875 111.859375 35.519531 127.484375 L 36.148438 127.484375 C 31.539062 133.042969 28.816406 140.070312 28.816406 147.832031 C 28.816406 152.027344 29.652344 156.117188 31.121094 159.785156 C 34.15625 172.371094 34.15625 177.929688 28.710938 191.039062 C 25.359375 196.597656 23.472656 203.203125 23.472656 210.230469 C 23.472656 230.367188 39.394531 246.832031 59.300781 247.566406 L 59.300781 172.894531 L 62.339844 172.894531 L 62.339844 247.671875 C 82.242188 246.832031 98.167969 230.472656 98.167969 210.335938 C 98.167969 203.308594 96.28125 196.703125 92.929688 191.144531 Z M 92.929688 191.144531 "/>
</g>
<g clip-path="url(#clip2)" clip-rule="nonzero">
<path style=" stroke:none;fill-rule:nonzero;fill:rgb(92.939758%,70.199585%,45.098877%);fill-opacity:1;" d="M 62.339844 247.671875 L 62.339844 172.894531 L 59.300781 172.894531 L 59.300781 298.324219 L 62.339844 298.324219 Z M 62.339844 247.671875 "/>
</g>
<g clip-path="url(#clip3)" clip-rule="nonzero">
<path style=" stroke:none;fill-rule:nonzero;fill:rgb(98.429871%,89.408875%,68.238831%);fill-opacity:1;" d="M 154.738281 175.203125 C 150.339844 182.019531 147.824219 190.199219 147.824219 198.90625 C 147.824219 222.921875 167.101562 242.429688 190.984375 242.847656 L 190.984375 189.992188 L 193.605469 189.992188 L 193.605469 242.742188 C 216.964844 241.796875 235.71875 222.5 235.71875 198.800781 C 235.71875 187.367188 231.421875 176.984375 224.300781 169.226562 L 165.320312 168.386719 C 161.964844 171.113281 158.507812 173.316406 154.738281 175.203125 Z M 154.738281 175.203125 "/>
</g>
<path style=" stroke:none;fill-rule:nonzero;fill:rgb(98.429871%,89.408875%,68.238831%);fill-opacity:1;" d="M 203.558594 134.40625 C 202.929688 128.847656 198.214844 124.546875 192.558594 124.546875 C 191.507812 124.546875 190.460938 124.757812 189.519531 124.96875 C 189.203125 128.113281 188.679688 131.15625 187.84375 134.199219 Z M 203.558594 134.40625 "/>
<path style=" stroke:none;fill-rule:nonzero;fill:rgb(98.429871%,89.408875%,68.238831%);fill-opacity:1;" d="M 165.320312 168.492188 L 224.300781 169.332031 C 202.613281 145.417969 204.5 142.585938 203.660156 134.511719 C 203.660156 134.511719 203.660156 134.511719 203.660156 134.40625 L 187.949219 134.199219 C 184.28125 147.9375 176.214844 159.996094 165.320312 168.492188 Z M 165.320312 168.492188 "/>
<g clip-path="url(#clip4)" clip-rule="nonzero">
<path style=" stroke:none;fill-rule:nonzero;fill:rgb(90.979004%,46.269226%,32.939148%);fill-opacity:1;" d="M 193.605469 189.992188 L 190.984375 189.992188 L 190.984375 298.324219 L 193.605469 298.324219 Z M 193.605469 189.992188 "/>
</g>
<g clip-path="url(#clip5)" clip-rule="nonzero">
<path style=" stroke:none;fill-rule:nonzero;fill:rgb(92.939758%,70.199585%,45.098877%);fill-opacity:1;" d="M 62.339844 118.152344 C 62.339844 121.296875 62.546875 124.445312 63.070312 127.484375 C 64.746094 138.917969 69.460938 149.402344 76.480469 158.109375 C 80.042969 162.511719 84.128906 166.5 88.738281 169.75 C 98.898438 177.195312 111.367188 181.601562 124.882812 181.914062 L 124.882812 126.332031 L 100.050781 101.582031 L 101.308594 100.324219 L 124.882812 123.816406 L 124.882812 103.257812 L 124.777344 103.15625 L 124.882812 103.050781 L 124.882812 82.914062 L 126.558594 82.914062 L 126.558594 101.476562 L 143.527344 84.488281 L 144.785156 85.746094 L 126.558594 103.886719 L 126.558594 152.339844 L 152.433594 126.542969 L 153.691406 127.800781 L 127.394531 153.914062 L 126.558594 153.074219 L 126.558594 182.019531 C 136.71875 181.914062 146.253906 179.503906 154.738281 175.203125 C 158.507812 173.316406 162.070312 171.113281 165.320312 168.492188 C 176.214844 159.996094 184.28125 147.9375 187.949219 134.09375 C 188.679688 131.050781 189.308594 128.007812 189.625 124.863281 C 189.832031 122.660156 189.9375 120.355469 189.9375 118.046875 C 189.9375 82.914062 161.339844 54.28125 126.136719 54.28125 C 101.832031 54.28125 80.671875 67.917969 69.882812 87.84375 C 69.566406 88.367188 69.359375 88.996094 69.042969 89.519531 C 64.746094 98.121094 62.339844 107.875 62.339844 118.152344 Z M 62.339844 118.152344 "/>
</g>
<g clip-path="url(#clip6)" clip-rule="nonzero">
<path style=" stroke:none;fill-rule:nonzero;fill:rgb(90.979004%,46.269226%,32.939148%);fill-opacity:1;" d="M 153.585938 127.800781 L 152.433594 126.542969 L 126.558594 152.339844 L 126.558594 103.886719 L 144.785156 85.640625 L 143.527344 84.488281 L 126.558594 101.371094 L 126.558594 82.914062 L 124.777344 82.914062 L 124.777344 123.917969 L 101.203125 100.324219 L 100.050781 101.582031 L 124.777344 126.332031 L 124.777344 298.324219 L 126.558594 298.324219 L 126.558594 154.960938 Z M 153.585938 127.800781 "/>
</g>
<path style=" stroke:none;fill-rule:nonzero;fill:rgb(79.998779%,85.488892%,98.429871%);fill-opacity:1;" d="M 935.800781 220.324219 L 937.523438 220.324219 L 937.523438 259.152344 L 935.800781 259.152344 Z M 935.800781 220.324219 "/>
<path style=" stroke:none;fill-rule:nonzero;fill:rgb(79.998779%,85.488892%,98.429871%);fill-opacity:1;" d="M 945.675781 266.167969 C 945.675781 266.484375 945.617188 266.785156 945.496094 267.074219 C 945.378906 267.367188 945.207031 267.621094 944.984375 267.84375 C 944.765625 268.066406 944.511719 268.238281 944.222656 268.359375 C 943.933594 268.476562 943.632812 268.539062 943.320312 268.539062 C 943.007812 268.539062 942.707031 268.476562 942.417969 268.359375 C 942.132812 268.238281 941.875 268.066406 941.65625 267.84375 C 941.433594 267.621094 941.265625 267.367188 941.144531 267.074219 C 941.023438 266.785156 940.964844 266.484375 940.964844 266.167969 C 940.964844 265.855469 941.023438 265.550781 941.144531 265.261719 C 941.265625 264.972656 941.433594 264.714844 941.65625 264.492188 C 941.875 264.269531 942.132812 264.097656 942.417969 263.980469 C 942.707031 263.859375 943.007812 263.800781 943.320312 263.800781 C 943.632812 263.800781 943.933594 263.859375 944.222656 263.980469 C 944.511719 264.097656 944.765625 264.269531 944.984375 264.492188 C 945.207031 264.714844 945.378906 264.972656 945.496094 265.261719 C 945.617188 265.550781 945.675781 265.855469 945.675781 266.167969 Z M 945.675781 266.167969 "/>
<path style=" stroke:none;fill-rule:nonzero;fill:rgb(79.998779%,85.488892%,98.429871%);fill-opacity:1;" d="M 932.359375 266.167969 C 932.359375 266.484375 932.300781 266.785156 932.179688 267.074219 C 932.0625 267.367188 931.890625 267.621094 931.667969 267.84375 C 931.449219 268.066406 931.195312 268.238281 930.90625 268.359375 C 930.617188 268.476562 930.316406 268.539062 930.003906 268.539062 C 929.691406 268.539062 929.390625 268.476562 929.101562 268.359375 C 928.8125 268.238281 928.558594 268.066406 928.339844 267.84375 C 928.117188 267.621094 927.949219 267.367188 927.828125 267.074219 C 927.707031 266.785156 927.648438 266.484375 927.648438 266.167969 C 927.648438 265.855469 927.707031 265.550781 927.828125 265.261719 C 927.949219 264.972656 928.117188 264.714844 928.339844 264.492188 C 928.558594 264.269531 928.8125 264.097656 929.101562 263.980469 C 929.390625 263.859375 929.691406 263.800781 930.003906 263.800781 C 930.316406 263.800781 930.617188 263.859375 930.90625 263.980469 C 931.195312 264.097656 931.449219 264.269531 931.667969 264.492188 C 931.890625 264.714844 932.0625 264.972656 932.179688 265.261719 C 932.300781 265.550781 932.359375 265.855469 932.359375 266.167969 Z M 932.359375 266.167969 "/>
<path style=" stroke:none;fill-rule:nonzero;fill:rgb(79.998779%,85.488892%,98.429871%);fill-opacity:1;" d="M 942.957031 266.714844 L 936.707031 259.332031 L 930.367188 266.714844 L 929.097656 265.621094 L 936.707031 256.691406 L 944.316406 265.621094 Z M 942.957031 266.714844 "/>
<path style=" stroke:none;fill-rule:nonzero;fill:rgb(97.24884%,76.078796%,3.138733%);fill-opacity:1;" d="M 951.925781 162.636719 L 932.085938 162.636719 C 929.550781 162.636719 926.832031 164.730469 926.832031 167.285156 L 926.832031 210.9375 L 904.910156 210.9375 C 901.558594 210.9375 898.660156 213.582031 898.660156 216.953125 C 898.570312 220.417969 901.378906 223.152344 904.730469 223.152344 L 949.570312 223.152344 L 949.210938 223.152344 C 953.375 223.152344 956.726562 219.777344 956.726562 215.585938 L 956.726562 167.285156 C 956.546875 164.730469 954.464844 162.636719 951.925781 162.636719 Z M 951.925781 162.636719 "/>
<path style=" stroke:none;fill-rule:nonzero;fill:rgb(14.898682%,64.309692%,98.429871%);fill-opacity:1;" d="M 881.359375 158.167969 C 881.359375 158.167969 871.210938 188.609375 896.757812 194.808594 L 906.269531 185.238281 L 900.925781 177.125 C 900.925781 177.125 889.058594 176.671875 886.972656 159.082031 C 885.523438 147.6875 881.359375 158.167969 881.359375 158.167969 Z M 881.359375 158.167969 "/>
<g clip-path="url(#clip7)" clip-rule="nonzero">
<path style=" stroke:none;fill-rule:nonzero;fill:rgb(96.859741%,75.689697%,3.138733%);fill-opacity:1;" d="M 981.003906 156.164062 C 980.914062 157.347656 979.554688 160.628906 979.195312 161.632812 C 980.371094 163.089844 982.910156 161.722656 984.449219 162.726562 C 984.628906 162.816406 984.902344 163 985.082031 163.089844 C 985.988281 160.539062 986.894531 157.988281 987.890625 155.527344 C 988.796875 153.066406 989.519531 150.695312 989.429688 150.332031 C 989.25 149.511719 989.429688 149.785156 989.25 149.511719 C 989.25 149.421875 989.160156 149.328125 989.160156 149.328125 C 989.066406 149.238281 988.976562 149.238281 988.976562 149.328125 C 988.886719 149.511719 988.796875 149.785156 988.707031 149.96875 C 988.164062 151.242188 987.710938 152.519531 987.257812 153.519531 C 987.257812 153.519531 987.164062 153.613281 987.164062 153.613281 C 987.164062 153.613281 987.074219 153.613281 986.984375 153.613281 C 986.894531 153.613281 986.894531 153.429688 986.894531 153.339844 C 987.4375 152.335938 987.890625 151.152344 988.34375 149.875 C 988.433594 149.601562 988.523438 149.421875 988.617188 149.148438 C 988.707031 148.964844 988.617188 148.78125 988.523438 148.691406 C 988.34375 148.507812 987.980469 148.601562 987.890625 148.875 C 987.800781 149.054688 987.710938 149.328125 987.617188 149.511719 C 987.074219 150.878906 986.53125 152.246094 985.988281 153.066406 C 985.988281 153.066406 985.898438 153.15625 985.898438 153.15625 C 985.808594 153.15625 985.808594 153.15625 985.714844 153.15625 C 985.625 153.066406 985.625 152.972656 985.625 152.882812 C 986.167969 152.0625 986.714844 150.695312 987.257812 149.328125 C 987.347656 149.054688 987.527344 148.78125 987.617188 148.417969 C 987.710938 148.234375 987.617188 147.960938 987.4375 147.871094 C 987.257812 147.78125 986.984375 147.871094 986.894531 148.054688 C 986.261719 149.601562 985.625 151.152344 984.902344 152.609375 C 984.902344 152.699219 984.808594 152.699219 984.808594 152.699219 C 984.808594 152.699219 984.71875 152.699219 984.71875 152.699219 C 984.628906 152.699219 984.628906 152.519531 984.628906 152.425781 C 985.355469 150.878906 985.988281 149.328125 986.621094 147.78125 C 986.710938 147.6875 986.621094 147.507812 986.441406 147.507812 C 986.351562 147.507812 986.167969 147.507812 986.078125 147.597656 C 985.445312 147.871094 984.992188 149.238281 984.628906 149.875 C 984.085938 150.96875 983.089844 152.609375 982.09375 154.339844 C 982.183594 154.25 981.003906 151.335938 980.644531 151.425781 C 980.554688 151.515625 980.460938 151.609375 980.460938 151.789062 C 980.460938 151.972656 980.554688 152.0625 980.554688 152.246094 C 981.003906 153.613281 981.1875 154.886719 981.003906 156.164062 Z M 981.003906 156.164062 "/>
</g>
<path style=" stroke:none;fill-rule:nonzero;fill:rgb(14.898682%,64.309692%,98.429871%);fill-opacity:1;" d="M 935.53125 177.582031 C 931.816406 176.125 928.011719 174.300781 924.839844 171.839844 C 922.667969 170.199219 920.402344 168.011719 919.859375 165.277344 C 919.316406 162.542969 921.035156 160.175781 922.9375 158.351562 C 924.386719 156.984375 926.109375 155.800781 927.832031 154.796875 C 930.277344 154.707031 932.8125 154.523438 935.257812 154.25 C 945.949219 152.792969 953.828125 161.085938 961.257812 167.648438 C 963.792969 169.925781 967.597656 173.84375 970.316406 171.75 C 973.578125 169.289062 978.378906 160.8125 979.554688 158.808594 C 979.554688 158.714844 979.648438 158.714844 979.648438 158.625 C 983.453125 159.355469 985.261719 160.8125 985.625 162.363281 C 984.539062 165.550781 982.363281 170.835938 980.734375 173.84375 C 979.375 176.304688 977.835938 178.675781 976.203125 180.953125 C 971.042969 187.972656 964.066406 185.964844 957.542969 181.773438 C 955.1875 180.226562 953.285156 178.039062 950.839844 176.578125 C 948.847656 175.394531 948.210938 175.304688 947.851562 177.765625 C 947.667969 178.859375 947.578125 180.042969 947.578125 181.226562 C 943.503906 180.316406 939.425781 179.132812 935.53125 177.582031 Z M 935.53125 177.582031 "/>
<path style=" stroke:none;fill-rule:nonzero;fill:rgb(93.328857%,50.19989%,74.508667%);fill-opacity:1;" d="M 814.957031 265.984375 C 813.054688 264.527344 810.15625 262.25 810.15625 262.25 L 810.609375 258.148438 C 807.890625 258.148438 805.171875 258.148438 802.453125 258.058594 L 802.453125 265.347656 C 802.453125 265.984375 802.453125 266.625 802.453125 267.261719 C 802.453125 267.808594 802.453125 268.445312 802.453125 268.992188 L 816.40625 268.992188 C 816.40625 268.355469 816.222656 267.808594 815.953125 267.261719 C 815.863281 266.804688 815.410156 266.351562 814.957031 265.984375 Z M 814.957031 265.984375 "/>
<g clip-path="url(#clip8)" clip-rule="nonzero">
<path style=" stroke:none;fill-rule:nonzero;fill:rgb(8.239746%,12.548828%,23.919678%);fill-opacity:1;" d="M 817.128906 269.449219 L 802.09375 269.449219 C 802.09375 268.992188 802.09375 268.445312 802.09375 267.898438 L 816.675781 267.898438 C 816.949219 268.355469 817.128906 268.902344 817.128906 269.449219 Z M 817.128906 269.449219 "/>
</g>
<path style=" stroke:none;fill-rule:nonzero;fill:rgb(93.328857%,50.19989%,74.508667%);fill-opacity:1;" d="M 792.039062 265.984375 C 790.132812 264.527344 787.234375 262.25 787.234375 262.25 L 787.6875 258.148438 C 784.972656 258.148438 782.253906 258.148438 779.535156 258.058594 L 779.535156 265.347656 C 779.535156 265.984375 779.535156 266.625 779.535156 267.261719 C 779.535156 267.808594 779.535156 268.445312 779.535156 268.992188 L 793.488281 268.992188 C 793.488281 268.355469 793.304688 267.808594 793.035156 267.261719 C 792.851562 266.804688 792.488281 266.351562 792.039062 265.984375 Z M 792.039062 265.984375 "/>
<g clip-path="url(#clip9)" clip-rule="nonzero">
<path style=" stroke:none;fill-rule:nonzero;fill:rgb(8.239746%,12.548828%,23.919678%);fill-opacity:1;" d="M 794.121094 269.449219 L 779.082031 269.449219 C 779.082031 268.992188 779.082031 268.445312 779.082031 267.898438 L 793.667969 267.898438 C 793.941406 268.355469 794.121094 268.902344 794.121094 269.449219 Z M 794.121094 269.449219 "/>
</g>
<path style=" stroke:none;fill-rule:nonzero;fill:rgb(96.859741%,75.689697%,3.138733%);fill-opacity:1;" d="M 929.28125 149.148438 L 929.28125 157.621094 C 929.28125 159.71875 927.46875 161.449219 925.292969 161.449219 C 923.210938 161.449219 921.308594 159.71875 921.308594 157.621094 L 921.308594 149.148438 C 921.308594 147.050781 923.121094 145.320312 925.203125 145.320312 C 926.289062 145.320312 927.285156 145.773438 928.011719 146.414062 C 928.734375 147.050781 929.28125 148.054688 929.28125 149.148438 Z M 929.28125 149.148438 "/>
<path style=" stroke:none;fill-rule:nonzero;fill:rgb(8.239746%,12.548828%,23.919678%);fill-opacity:1;" d="M 925.203125 151.699219 L 921.398438 153.976562 L 921.398438 150.421875 C 922.394531 151.0625 923.300781 151.609375 925.203125 151.699219 Z M 925.203125 151.699219 "/>
<g clip-path="url(#clip10)" clip-rule="nonzero">
<path style=" stroke:none;fill-rule:nonzero;fill:rgb(8.239746%,12.548828%,23.919678%);fill-opacity:1;" d="M 920.402344 138.390625 C 920.582031 137.664062 920.945312 137.117188 921.398438 136.933594 C 921.851562 136.75 922.394531 136.84375 922.847656 136.84375 C 924.660156 136.933594 927.195312 136.660156 928.917969 137.480469 C 930.183594 138.027344 930.636719 139.121094 930.910156 140.578125 C 931.183594 142.402344 931.273438 144.132812 931.183594 145.957031 C 931.089844 146.960938 931 147.960938 930.277344 148.601562 C 929.460938 149.328125 928.191406 148.78125 927.46875 147.960938 C 927.195312 147.597656 926.925781 147.234375 926.832031 146.777344 C 926.652344 146.320312 926.5625 145.773438 926.378906 145.226562 C 926.109375 144.316406 925.382812 143.40625 924.570312 143.222656 C 923.480469 142.949219 921.578125 144.5 920.765625 143.496094 C 920.039062 142.585938 919.859375 140.03125 920.402344 138.390625 Z M 920.402344 138.390625 "/>
</g>
<path style=" stroke:none;fill-rule:nonzero;fill:rgb(96.859741%,75.689697%,3.138733%);fill-opacity:1;" d="M 924.296875 151.609375 L 927.285156 150.605469 C 930.09375 147.960938 927.46875 147.960938 929.460938 147.960938 L 929.28125 143.222656 C 929.28125 140.488281 927.015625 138.210938 924.296875 138.210938 C 921.578125 138.210938 919.40625 140.488281 919.40625 143.222656 L 919.40625 147.960938 C 919.40625 148.875 920.039062 151.335938 924.296875 151.609375 Z M 924.296875 151.609375 "/>
<path style=" stroke:none;fill-rule:nonzero;fill:rgb(8.239746%,12.548828%,23.919678%);fill-opacity:1;" d="M 929.136719 143.410156 C 929.355469 143.539062 929.539062 143.703125 929.695312 143.902344 C 929.847656 144.105469 929.957031 144.328125 930.023438 144.574219 C 930.085938 144.820312 930.105469 145.066406 930.070312 145.320312 C 930.039062 145.570312 929.957031 145.804688 929.832031 146.027344 C 929.707031 146.246094 929.542969 146.433594 929.34375 146.585938 C 929.144531 146.742188 928.921875 146.851562 928.675781 146.917969 C 928.433594 146.984375 928.1875 147 927.9375 146.964844 C 927.6875 146.933594 927.453125 146.851562 927.234375 146.726562 C 927.015625 146.597656 926.828125 146.433594 926.675781 146.234375 C 926.523438 146.03125 926.414062 145.808594 926.347656 145.5625 C 926.28125 145.320312 926.265625 145.070312 926.296875 144.820312 C 926.332031 144.566406 926.410156 144.332031 926.539062 144.113281 C 926.664062 143.890625 926.828125 143.703125 927.027344 143.550781 C 927.226562 143.394531 927.449219 143.285156 927.691406 143.21875 C 927.9375 143.15625 928.183594 143.136719 928.433594 143.171875 C 928.683594 143.203125 928.917969 143.285156 929.136719 143.410156 Z M 929.136719 143.410156 "/>
<path style=" stroke:none;fill-rule:nonzero;fill:rgb(8.239746%,12.548828%,23.919678%);fill-opacity:1;" d="M 930.910156 142.3125 C 930.730469 141.308594 930.003906 139.941406 929.1875 139.304688 C 927.921875 138.300781 926.378906 137.480469 924.660156 137.296875 C 923.480469 137.207031 922.304688 137.390625 921.308594 137.84375 C 921.21875 138.757812 921.125 139.667969 921.125 140.578125 C 923.027344 140.761719 924.570312 140.851562 925.113281 140.761719 C 925.476562 143.859375 926.832031 143.769531 928.375 144.226562 C 929.824219 144.679688 931.183594 144.042969 930.910156 142.3125 Z M 930.910156 142.3125 "/>
<path style=" stroke:none;fill-rule:nonzero;fill:rgb(8.239746%,12.548828%,23.919678%);fill-opacity:1;" d="M 923.480469 144.589844 C 923.300781 144.589844 923.121094 144.40625 923.121094 144.226562 C 923.121094 144.042969 923.300781 143.859375 923.480469 143.859375 C 923.664062 143.859375 923.84375 144.042969 923.84375 144.226562 C 923.84375 144.40625 923.664062 144.589844 923.480469 144.589844 Z M 923.480469 144.589844 "/>
<path style=" stroke:none;fill-rule:nonzero;fill:rgb(8.239746%,12.548828%,23.919678%);fill-opacity:1;" d="M 921.851562 147.507812 C 921.941406 147.507812 922.121094 147.507812 922.214844 147.414062 C 922.394531 147.324219 922.574219 147.050781 922.484375 146.777344 L 922.214844 146.777344 C 922.214844 146.960938 922.121094 147.050781 922.03125 147.140625 C 921.941406 147.234375 921.671875 147.234375 921.398438 147.050781 L 921.21875 147.234375 C 921.488281 147.414062 921.671875 147.507812 921.851562 147.507812 Z M 921.851562 147.507812 "/>
<path style=" stroke:none;fill-rule:nonzero;fill:rgb(8.239746%,12.548828%,23.919678%);fill-opacity:1;" d="M 921.308594 146.046875 L 921.941406 146.046875 L 921.941406 145.773438 L 921.578125 145.773438 L 921.578125 143.769531 L 921.308594 143.769531 Z M 921.308594 146.046875 "/>
<path style=" stroke:none;fill-rule:nonzero;fill:rgb(8.239746%,12.548828%,23.919678%);fill-opacity:1;" d="M 920.21875 144.589844 C 920.039062 144.589844 919.859375 144.40625 919.859375 144.226562 C 919.859375 144.042969 920.039062 143.859375 920.21875 143.859375 C 920.402344 143.859375 920.582031 144.042969 920.582031 144.226562 C 920.582031 144.40625 920.402344 144.589844 920.21875 144.589844 Z M 920.21875 144.589844 "/>
<path style=" stroke:none;fill-rule:nonzero;fill:rgb(8.239746%,12.548828%,23.919678%);fill-opacity:1;" d="M 928.917969 148.875 C 929.824219 148.875 930.546875 148.144531 930.546875 147.234375 L 930.546875 146.230469 C 930.546875 145.320312 929.824219 144.589844 928.917969 144.589844 C 928.011719 144.589844 927.285156 145.320312 927.285156 146.230469 L 927.285156 147.234375 C 927.285156 148.144531 928.011719 148.875 928.917969 148.875 Z M 928.917969 148.875 "/>
<path style=" stroke:none;fill-rule:nonzero;fill:rgb(96.859741%,75.689697%,3.138733%);fill-opacity:1;" d="M 929.113281 144.023438 C 929.332031 144.152344 929.519531 144.316406 929.671875 144.515625 C 929.828125 144.71875 929.9375 144.941406 930 145.1875 C 930.066406 145.429688 930.082031 145.679688 930.050781 145.929688 C 930.015625 146.183594 929.9375 146.417969 929.8125 146.636719 C 929.683594 146.859375 929.523438 147.046875 929.320312 147.199219 C 929.121094 147.355469 928.898438 147.464844 928.65625 147.53125 C 928.414062 147.59375 928.164062 147.613281 927.914062 147.578125 C 927.664062 147.546875 927.429688 147.464844 927.210938 147.339844 C 926.996094 147.210938 926.808594 147.046875 926.65625 146.847656 C 926.5 146.644531 926.390625 146.421875 926.328125 146.175781 C 926.261719 145.929688 926.246094 145.683594 926.277344 145.429688 C 926.3125 145.179688 926.390625 144.945312 926.515625 144.722656 C 926.640625 144.503906 926.804688 144.316406 927.003906 144.164062 C 927.207031 144.007812 927.429688 143.898438 927.671875 143.832031 C 927.914062 143.765625 928.160156 143.75 928.414062 143.785156 C 928.664062 143.816406 928.898438 143.898438 929.113281 144.023438 Z M 929.113281 144.023438 "/>
<g clip-path="url(#clip11)" clip-rule="nonzero">
<path style=" stroke:none;fill-rule:nonzero;fill:rgb(8.239746%,12.548828%,23.919678%);fill-opacity:1;" d="M 922.757812 136.933594 C 921.941406 136.570312 920.039062 136.660156 919.316406 137.117188 C 918.589844 137.570312 918.136719 138.390625 918.046875 139.304688 C 918.046875 139.667969 918.136719 139.941406 918.226562 140.214844 C 918.5 140.761719 919.222656 141.125 919.859375 141.125 C 920.492188 141.125 921.125 140.945312 921.761719 140.761719 C 922.214844 140.671875 922.667969 140.488281 923.121094 140.214844 C 923.480469 139.941406 923.84375 139.484375 923.753906 139.03125 C 923.664062 138.574219 924.386719 138.210938 924.023438 137.9375 C 923.753906 137.664062 924.386719 137.296875 924.117188 137.023438 Z M 922.757812 136.933594 "/>
</g>
<path style=" stroke:none;fill-rule:nonzero;fill:rgb(63.139343%,86.268616%,100%);fill-opacity:1;" d="M 938.246094 202.371094 C 936.890625 202.371094 935.441406 201.914062 934.082031 201.1875 C 932.449219 200.183594 931.089844 198.726562 929.734375 196.722656 C 926.925781 192.253906 925.65625 187.058594 924.476562 182.046875 L 924.839844 181.957031 C 926.019531 186.96875 927.195312 192.164062 930.003906 196.539062 C 931.273438 198.542969 932.632812 200.003906 934.171875 200.914062 C 936.074219 202.007812 938.15625 202.371094 939.96875 201.824219 L 940.058594 202.1875 C 939.605469 202.28125 938.972656 202.371094 938.246094 202.371094 Z M 938.246094 202.371094 "/>
<path style=" stroke:none;fill-rule:nonzero;fill:rgb(63.139343%,86.268616%,100%);fill-opacity:1;" d="M 908.898438 201.460938 C 908.171875 201.460938 907.539062 201.367188 906.902344 201.003906 L 907.085938 200.640625 C 909.53125 201.824219 912.703125 200.367188 914.152344 198.269531 C 915.964844 195.71875 916.054688 192.347656 916.144531 189.613281 C 916.234375 187.332031 916.324219 184.964844 916.414062 182.6875 C 916.507812 181.59375 916.507812 180.5 916.597656 179.40625 L 916.6875 177.765625 L 917.050781 177.765625 L 916.960938 179.40625 C 916.867188 180.5 916.867188 181.59375 916.777344 182.6875 C 916.6875 184.964844 916.597656 187.332031 916.507812 189.613281 C 916.414062 192.347656 916.234375 195.808594 914.421875 198.453125 C 913.335938 200.183594 911.070312 201.460938 908.898438 201.460938 Z M 908.898438 201.460938 "/>
<path style=" stroke:none;fill-rule:nonzero;fill:rgb(8.239746%,0%,46.669006%);fill-opacity:1;" d="M 910.347656 191.34375 C 913.335938 191.34375 916.324219 191.070312 919.316406 190.613281 C 920.492188 190.433594 925.925781 189.246094 930.457031 187.332031 C 929.097656 186.605469 926.742188 186.238281 925.292969 185.785156 C 922.121094 184.691406 918.863281 183.597656 915.691406 182.503906 L 915.328125 182.414062 L 915.238281 182.59375 C 915.238281 182.59375 912.339844 187.605469 912.25 187.699219 C 911.613281 188.882812 910.980469 190.066406 910.347656 191.34375 Z M 910.347656 191.34375 "/>
<path style=" stroke:none;fill-rule:nonzero;fill:rgb(14.898682%,64.309692%,98.429871%);fill-opacity:1;" d="M 946.308594 157.621094 C 944.859375 156.347656 942.867188 155.527344 940.332031 155.253906 C 937.613281 154.980469 934.988281 154.796875 932.269531 154.613281 C 926.289062 154.25 920.21875 154.066406 914.242188 154.160156 C 910.800781 154.25 906.632812 153.613281 903.644531 155.527344 C 900.925781 157.257812 899.476562 160.265625 898.570312 163.273438 C 896.757812 169.289062 896.484375 175.484375 896.304688 181.683594 C 896.304688 183.507812 894.945312 187.425781 895.582031 189.886719 L 894.402344 202.371094 L 908.171875 204.375 C 908.535156 204.558594 908.804688 204.648438 909.167969 204.742188 C 919.949219 206.929688 934.535156 207.839844 942.957031 202.917969 C 943.230469 202.734375 943.59375 202.554688 943.863281 202.371094 C 944.316406 202.097656 944.679688 201.734375 944.953125 201.277344 C 945.222656 200.820312 945.042969 200.183594 945.132812 199.636719 C 945.585938 196.996094 946.128906 192.164062 946.855469 187.242188 C 947.308594 184.234375 947.667969 181.320312 948.304688 178.3125 C 948.847656 176.03125 949.300781 173.664062 949.660156 171.382812 C 950.386719 165.917969 949.753906 160.628906 946.308594 157.621094 Z M 946.308594 157.621094 "/>
<path style=" stroke:none;fill-rule:nonzero;fill:rgb(8.239746%,12.548828%,23.919678%);fill-opacity:1;" d="M 902.375 172.660156 L 901.378906 172.023438 L 901.195312 199.089844 L 904.277344 199.820312 Z M 902.375 172.660156 "/>
<path style=" stroke:none;fill-rule:nonzero;fill:rgb(94.119263%,95.289612%,98.81897%);fill-opacity:1;" d="M 934.351562 154.339844 L 922.484375 164.183594 C 922.484375 164.183594 916.6875 154.339844 916.324219 154.160156 C 922.304688 154.066406 928.28125 154.160156 934.351562 154.339844 Z M 934.351562 154.339844 "/>
<path style=" stroke:none;fill-rule:nonzero;fill:rgb(8.239746%,12.548828%,23.919678%);fill-opacity:1;" d="M 863.421875 199.089844 L 895.128906 199.089844 C 896.035156 199.089844 896.757812 198.363281 896.757812 197.449219 L 894.132812 177.308594 C 894.132812 176.398438 893.40625 175.667969 892.5 175.667969 L 860.792969 175.667969 C 859.886719 175.667969 859.164062 176.398438 859.164062 177.308594 L 861.789062 197.449219 C 861.789062 198.363281 862.515625 199.089844 863.421875 199.089844 Z M 863.421875 199.089844 "/>
<path style=" stroke:none;fill-rule:nonzero;fill:rgb(8.239746%,12.548828%,23.919678%);fill-opacity:1;" d="M 876.648438 199.089844 L 907.992188 199.089844 C 908.898438 199.089844 909.621094 198.363281 909.621094 197.449219 C 909.621094 196.539062 908.898438 195.808594 907.992188 195.808594 L 876.648438 195.808594 C 875.742188 195.808594 875.015625 196.539062 875.015625 197.449219 C 875.015625 198.363281 875.742188 199.089844 876.648438 199.089844 Z M 876.648438 199.089844 "/>
<path style=" stroke:none;fill-rule:nonzero;fill:rgb(91.758728%,96.078491%,98.429871%);fill-opacity:1;" d="M 876.464844 187.515625 C 876.828125 187.515625 877.101562 187.242188 877.101562 186.878906 C 877.101562 186.605469 876.917969 186.421875 876.648438 186.332031 C 876.828125 186.148438 877.101562 186.058594 877.371094 186.058594 C 878.007812 186.058594 878.550781 186.605469 878.550781 187.242188 C 878.550781 187.878906 878.007812 188.425781 877.371094 188.425781 C 876.738281 188.425781 876.285156 187.972656 876.195312 187.425781 C 876.285156 187.425781 876.375 187.515625 876.464844 187.515625 Z M 876.464844 187.515625 "/>
<path style=" stroke:none;fill-rule:nonzero;fill:rgb(14.898682%,64.309692%,98.429871%);fill-opacity:1;" d="M 905.90625 267.078125 L 906.542969 268.355469 L 923.390625 259.878906 L 922.574219 258.148438 L 915.691406 244.203125 L 908.988281 247.578125 L 913.335938 256.234375 L 906.632812 263.070312 C 905.726562 263.980469 905.453125 265.347656 905.816406 266.53125 C 905.726562 266.714844 905.816406 266.898438 905.90625 267.078125 Z M 905.90625 267.078125 "/>
<g clip-path="url(#clip12)" clip-rule="nonzero">
<path style=" stroke:none;fill-rule:nonzero;fill:rgb(8.239746%,12.548828%,23.919678%);fill-opacity:1;" d="M 906.179688 268.171875 L 906.8125 269.449219 L 923.933594 260.792969 L 923.027344 259.058594 L 905.90625 267.625 C 906 267.898438 906.089844 268.082031 906.179688 268.171875 Z M 906.179688 268.171875 "/>
</g>
<path style=" stroke:none;fill-rule:nonzero;fill:rgb(14.898682%,64.309692%,98.429871%);fill-opacity:1;" d="M 861.609375 266.078125 L 861.609375 267.535156 L 880.722656 267.535156 L 880.722656 265.53125 L 880.8125 250.675781 L 873.203125 250.675781 L 873.203125 260.609375 L 863.964844 263.707031 C 862.695312 264.164062 861.789062 264.253906 861.609375 265.53125 C 861.609375 265.710938 861.609375 265.894531 861.609375 266.078125 Z M 861.609375 266.078125 "/>
<g clip-path="url(#clip13)" clip-rule="nonzero">
<path style=" stroke:none;fill-rule:nonzero;fill:rgb(8.239746%,12.548828%,23.919678%);fill-opacity:1;" d="M 861.609375 267.992188 L 861.609375 269.449219 L 880.722656 269.449219 L 880.722656 267.445312 L 861.609375 267.445312 C 861.609375 267.625 861.609375 267.808594 861.609375 267.992188 Z M 861.609375 267.992188 "/>
</g>
<path style=" stroke:none;fill-rule:nonzero;fill:rgb(8.239746%,0%,46.669006%);fill-opacity:1;" d="M 921.851562 200.550781 C 920.765625 200.550781 899.292969 200.730469 886.070312 200.820312 C 880.089844 200.820312 875.015625 205.015625 873.65625 210.847656 L 868.402344 256.507812 C 868.3125 256.964844 868.675781 257.417969 869.128906 257.417969 L 881.71875 258.96875 L 891.324219 218.867188 L 928.828125 219.414062 C 933.988281 219.503906 938.429688 216.042969 939.789062 211.03125 L 942.6875 199.910156 L 920.671875 200.914062 Z M 921.851562 200.550781 "/>
<path style=" stroke:none;fill-rule:nonzero;fill:rgb(13.729858%,0%,69.40918%);fill-opacity:1;" d="M 943.863281 201.1875 C 943.320312 201.1875 916.234375 201.277344 899.65625 201.367188 C 891.777344 201.367188 886.160156 209.117188 888.515625 216.773438 L 906 256.417969 C 906.179688 256.691406 906.449219 256.871094 906.8125 256.78125 L 919.769531 251.585938 L 907.808594 218.867188 L 930.367188 219.050781 C 936.074219 219.140625 942.234375 215.132812 944.136719 209.664062 L 944.953125 200.820312 Z M 943.863281 201.1875 "/>
<path style=" stroke:none;fill-rule:nonzero;fill:rgb(79.998779%,85.488892%,98.429871%);fill-opacity:1;" d="M 763.140625 220.324219 L 764.859375 220.324219 L 764.859375 259.152344 L 763.140625 259.152344 Z M 763.140625 220.324219 "/>
<path style=" stroke:none;fill-rule:nonzero;fill:rgb(79.998779%,85.488892%,98.429871%);fill-opacity:1;" d="M 759.789062 266.167969 C 759.789062 266.484375 759.726562 266.785156 759.609375 267.074219 C 759.488281 267.367188 759.320312 267.621094 759.097656 267.84375 C 758.875 268.066406 758.621094 268.238281 758.332031 268.359375 C 758.042969 268.476562 757.746094 268.539062 757.433594 268.539062 C 757.121094 268.539062 756.820312 268.476562 756.53125 268.359375 C 756.242188 268.238281 755.988281 268.066406 755.765625 267.84375 C 755.546875 267.621094 755.375 267.367188 755.257812 267.074219 C 755.136719 266.785156 755.078125 266.484375 755.078125 266.167969 C 755.078125 265.855469 755.136719 265.550781 755.257812 265.261719 C 755.375 264.972656 755.546875 264.714844 755.765625 264.492188 C 755.988281 264.269531 756.242188 264.097656 756.53125 263.980469 C 756.820312 263.859375 757.121094 263.800781 757.433594 263.800781 C 757.746094 263.800781 758.042969 263.859375 758.332031 263.980469 C 758.621094 264.097656 758.875 264.269531 759.097656 264.492188 C 759.320312 264.714844 759.488281 264.972656 759.609375 265.261719 C 759.726562 265.550781 759.789062 265.855469 759.789062 266.167969 Z M 759.789062 266.167969 "/>
<path style=" stroke:none;fill-rule:nonzero;fill:rgb(79.998779%,85.488892%,98.429871%);fill-opacity:1;" d="M 773.105469 266.167969 C 773.105469 266.484375 773.042969 266.785156 772.925781 267.074219 C 772.804688 267.367188 772.636719 267.621094 772.414062 267.84375 C 772.191406 268.066406 771.9375 268.238281 771.648438 268.359375 C 771.363281 268.476562 771.0625 268.539062 770.75 268.539062 C 770.4375 268.539062 770.136719 268.476562 769.847656 268.359375 C 769.558594 268.238281 769.304688 268.066406 769.082031 267.84375 C 768.863281 267.621094 768.691406 267.367188 768.574219 267.074219 C 768.453125 266.785156 768.394531 266.484375 768.394531 266.167969 C 768.394531 265.855469 768.453125 265.550781 768.574219 265.261719 C 768.691406 264.972656 768.863281 264.714844 769.082031 264.492188 C 769.304688 264.269531 769.558594 264.097656 769.847656 263.980469 C 770.136719 263.859375 770.4375 263.800781 770.75 263.800781 C 771.0625 263.800781 771.363281 263.859375 771.648438 263.980469 C 771.9375 264.097656 772.191406 264.269531 772.414062 264.492188 C 772.636719 264.714844 772.804688 264.972656 772.925781 265.261719 C 773.042969 265.550781 773.105469 265.855469 773.105469 266.167969 Z M 773.105469 266.167969 "/>
<path style=" stroke:none;fill-rule:nonzero;fill:rgb(79.998779%,85.488892%,98.429871%);fill-opacity:1;" d="M 757.792969 266.714844 L 764.046875 259.332031 L 770.296875 266.714844 L 771.65625 265.621094 L 764.046875 256.691406 L 756.4375 265.621094 Z M 757.792969 266.714844 "/>
<path style=" stroke:none;fill-rule:nonzero;fill:rgb(52.938843%,41.178894%,72.158813%);fill-opacity:1;" d="M 802.183594 217.042969 C 802.273438 220.507812 799.464844 223.242188 796.113281 223.242188 L 751.726562 223.242188 C 747.558594 223.242188 744.023438 219.777344 744.023438 215.679688 L 744.023438 169.652344 C 744.023438 167.558594 745.472656 165.824219 747.375 165.277344 C 747.828125 165.1875 748.375 165.097656 748.824219 165.097656 L 768.664062 165.097656 C 771.203125 165.097656 773.917969 167.011719 773.917969 169.652344 L 773.917969 211.03125 L 795.933594 211.03125 C 799.285156 211.03125 802.09375 213.671875 802.183594 217.042969 Z M 802.183594 217.042969 "/>
<path style=" stroke:none;fill-rule:nonzero;fill:rgb(52.159119%,63.139343%,96.859741%);fill-opacity:1;" d="M 792.308594 201.09375 C 788.867188 198.910156 786.238281 195.445312 785.332031 191.160156 C 785.332031 191.160156 762.324219 191.160156 761.960938 190.796875 C 762.144531 190.980469 757.523438 196.722656 757.070312 197.359375 C 755.347656 199.910156 753.988281 202.734375 754.351562 206.015625 C 755.167969 212.304688 761.691406 216.953125 767.757812 216.953125 C 767.757812 216.953125 771.746094 216.953125 777.269531 216.953125 L 777.90625 244.660156 L 777.90625 261.339844 C 777.90625 261.792969 778.269531 262.25 778.71875 262.25 L 786.238281 262.25 C 786.601562 262.25 786.964844 261.886719 787.054688 261.519531 L 787.871094 254.957031 C 787.871094 254.957031 790.132812 239.375 792.398438 218.957031 L 792.398438 201.09375 Z M 792.308594 201.09375 "/>
<path style=" stroke:none;fill-rule:nonzero;fill:rgb(8.239746%,0%,46.669006%);fill-opacity:1;" d="M 817.582031 216.316406 C 815.226562 237.1875 812.871094 254.59375 812.871094 254.59375 L 812.058594 261.15625 C 811.964844 261.519531 811.695312 261.886719 811.242188 261.886719 L 801.1875 261.886719 C 800.734375 261.886719 800.550781 261.429688 800.550781 260.972656 L 800.550781 243.292969 L 799.828125 217.863281 C 799.828125 216.589844 798.832031 215.679688 797.5625 215.679688 L 785.425781 215.679688 L 785.425781 199.910156 C 787.6875 201.1875 790.226562 202.007812 793.035156 202.007812 L 802.546875 202.007812 C 806.167969 202.097656 812.148438 203.648438 814.503906 206.382812 C 816.859375 209.117188 817.945312 212.761719 817.582031 216.316406 Z M 817.582031 216.316406 "/>
<path style=" stroke:none;fill-rule:nonzero;fill:rgb(14.898682%,64.309692%,98.429871%);fill-opacity:1;" d="M 754.351562 202.460938 C 754.082031 203.554688 753.898438 204.832031 754.082031 206.015625 C 754.894531 212.304688 761.417969 216.953125 767.488281 216.953125 C 767.488281 216.953125 771.472656 216.953125 777 216.953125 L 777.632812 244.660156 L 777.632812 261.339844 C 777.632812 261.886719 778.085938 262.25 778.539062 262.25 L 788.503906 262.25 C 788.867188 262.25 789.230469 261.886719 789.320312 261.519531 L 790.132812 254.957031 C 790.132812 254.957031 792.398438 239.375 794.664062 218.957031 L 795.296875 212.671875 C 795.84375 207.203125 791.585938 202.460938 786.148438 202.460938 Z M 754.351562 202.460938 "/>
<path style=" stroke:none;fill-rule:nonzero;fill:rgb(96.859741%,75.689697%,3.138733%);fill-opacity:1;" d="M 787.78125 165.644531 C 786.78125 167.648438 784.789062 168.921875 782.617188 169.742188 C 778.449219 171.292969 773.464844 170.929688 769.660156 168.558594 C 768.484375 167.832031 764.40625 165.003906 763.59375 163.546875 C 763.140625 162.816406 768.574219 162.636719 771.5625 159.445312 C 772.378906 158.535156 772.832031 157.074219 773.195312 155.433594 C 773.464844 154.066406 773.558594 152.699219 773.648438 151.609375 C 773.738281 150.878906 773.738281 150.332031 773.738281 149.96875 L 775.097656 150.96875 L 775.550781 151.425781 L 774.824219 152.335938 L 774.28125 152.972656 L 775.730469 153.246094 L 775.820312 153.339844 L 779.445312 154.066406 L 779.445312 155.800781 C 779.445312 156.164062 779.535156 156.621094 779.625 156.984375 C 779.808594 157.714844 780.171875 158.441406 780.621094 158.988281 C 780.621094 158.988281 780.714844 159.082031 780.714844 159.082031 C 780.984375 159.445312 781.4375 159.71875 781.800781 159.992188 C 783.25 160.902344 784.15625 161.816406 786.328125 162.089844 C 787.960938 162.269531 786.601562 162.089844 787.328125 163.089844 C 788.050781 163.730469 788.230469 164.914062 787.78125 165.644531 Z M 787.78125 165.644531 "/>
<path style=" stroke:none;fill-rule:nonzero;fill:rgb(8.239746%,12.548828%,23.919678%);fill-opacity:1;" d="M 780.804688 158.898438 C 778.902344 158.625 776.726562 158.078125 776.636719 155.527344 C 776.636719 155.160156 776.546875 154.796875 776.457031 154.339844 L 779.171875 154.980469 L 779.171875 155.707031 C 779.171875 156.074219 779.445312 156.4375 779.808594 156.894531 C 779.988281 157.621094 780.351562 158.351562 780.804688 158.898438 Z M 780.804688 158.898438 "/>
<path style=" stroke:none;fill-rule:nonzero;fill:rgb(96.859741%,75.689697%,3.138733%);fill-opacity:1;" d="M 783.070312 149.511719 C 782.886719 149.054688 782.707031 148.691406 782.523438 148.328125 C 782.523438 148.234375 782.433594 148.234375 782.433594 148.144531 C 781.800781 147.140625 780.984375 146.320312 779.988281 145.773438 C 779.625 145.867188 779.171875 145.957031 778.628906 145.773438 C 775.277344 144.953125 774.734375 148.234375 774.191406 151.242188 C 774.101562 151.335938 773.917969 151.425781 773.917969 151.425781 C 774.101562 151.789062 773.828125 152.882812 773.828125 153.613281 C 773.917969 153.792969 773.917969 153.976562 774.011719 154.066406 C 774.101562 154.25 774.101562 154.339844 774.191406 154.523438 C 775.007812 155.527344 776.09375 156.347656 777.269531 156.800781 C 778.902344 157.347656 781.257812 157.257812 782.34375 155.707031 C 783.523438 153.976562 783.792969 151.609375 783.070312 149.511719 Z M 783.070312 149.511719 "/>
<path style=" stroke:none;fill-rule:nonzero;fill:rgb(8.239746%,12.548828%,23.919678%);fill-opacity:1;" d="M 781.4375 152.792969 L 782.253906 152.609375 L 782.253906 150.242188 L 781.890625 150.242188 L 781.890625 152.335938 L 781.347656 152.425781 Z M 781.4375 152.792969 "/>
<path style=" stroke:none;fill-rule:nonzero;fill:rgb(8.239746%,12.548828%,23.919678%);fill-opacity:1;" d="M 780.261719 153.792969 C 780.53125 153.792969 780.714844 153.703125 780.984375 153.519531 L 780.804688 153.246094 C 780.441406 153.519531 780.078125 153.429688 779.898438 153.339844 C 779.71875 153.246094 779.625 153.066406 779.625 152.882812 L 779.265625 152.882812 C 779.265625 153.246094 779.355469 153.519531 779.71875 153.703125 C 779.898438 153.703125 780.078125 153.792969 780.261719 153.792969 Z M 780.261719 153.792969 "/>
<path style=" stroke:none;fill-rule:nonzero;fill:rgb(8.239746%,12.548828%,23.919678%);fill-opacity:1;" d="M 783.160156 151.335938 C 783.339844 151.335938 783.429688 151.242188 783.429688 151.0625 C 783.429688 150.878906 783.339844 150.789062 783.160156 150.789062 C 782.976562 150.789062 782.886719 150.878906 782.886719 151.0625 C 782.886719 151.152344 782.976562 151.335938 783.160156 151.335938 Z M 783.160156 151.335938 "/>
<path style=" stroke:none;fill-rule:nonzero;fill:rgb(8.239746%,12.548828%,23.919678%);fill-opacity:1;" d="M 779.625 150.96875 C 779.808594 150.96875 779.898438 150.878906 779.898438 150.695312 C 779.898438 150.515625 779.808594 150.421875 779.625 150.421875 C 779.445312 150.421875 779.355469 150.515625 779.355469 150.695312 C 779.355469 150.878906 779.445312 150.96875 779.625 150.96875 Z M 779.625 150.96875 "/>
<path style=" stroke:none;fill-rule:nonzero;fill:rgb(8.239746%,12.548828%,23.919678%);fill-opacity:1;" d="M 775.914062 152.882812 C 775.914062 152.972656 775.820312 153.066406 775.820312 153.246094 C 775.460938 154.066406 774.460938 154.980469 773.285156 155.433594 C 773.558594 154.066406 773.648438 152.699219 773.738281 151.609375 L 774.914062 152.335938 Z M 775.914062 152.882812 "/>
<path style=" stroke:none;fill-rule:nonzero;fill:rgb(8.239746%,12.548828%,23.919678%);fill-opacity:1;" d="M 782.886719 148.328125 C 782.523438 148.328125 782.253906 148.328125 781.980469 148.144531 C 781.4375 147.871094 781.074219 147.234375 780.441406 147.140625 C 780.171875 147.960938 780.351562 148.78125 779.625 149.421875 C 779.355469 149.601562 779.082031 149.785156 778.8125 149.96875 C 777.996094 150.332031 776.910156 149.96875 776.183594 150.421875 C 775.460938 150.789062 775.007812 151.789062 774.28125 152.335938 C 774.011719 152.519531 773.738281 152.699219 773.464844 152.699219 C 772.378906 150.695312 772.199219 148.144531 773.738281 146.414062 C 774.914062 145.046875 776.816406 144.5 778.539062 144.953125 C 780.261719 145.410156 781.800781 146.59375 782.886719 148.144531 C 782.796875 148.234375 782.796875 148.328125 782.886719 148.328125 Z M 782.886719 148.328125 "/>
<path style=" stroke:none;fill-rule:nonzero;fill:rgb(96.859741%,75.689697%,3.138733%);fill-opacity:1;" d="M 774.65625 149.894531 C 774.910156 149.898438 775.152344 149.949219 775.382812 150.050781 C 775.617188 150.148438 775.820312 150.289062 775.996094 150.472656 C 776.171875 150.652344 776.308594 150.863281 776.402344 151.097656 C 776.496094 151.332031 776.542969 151.578125 776.539062 151.832031 C 776.535156 152.085938 776.484375 152.328125 776.386719 152.5625 C 776.285156 152.796875 776.148438 153 775.96875 153.179688 C 775.785156 153.355469 775.578125 153.492188 775.34375 153.585938 C 775.109375 153.679688 774.867188 153.726562 774.617188 153.722656 C 774.363281 153.722656 774.121094 153.667969 773.890625 153.570312 C 773.65625 153.46875 773.453125 153.328125 773.277344 153.148438 C 773.101562 152.96875 772.964844 152.757812 772.871094 152.523438 C 772.777344 152.289062 772.730469 152.042969 772.734375 151.789062 C 772.738281 151.535156 772.789062 151.292969 772.886719 151.058594 C 772.984375 150.824219 773.125 150.621094 773.304688 150.441406 C 773.488281 150.265625 773.695312 150.128906 773.929688 150.035156 C 774.160156 149.941406 774.40625 149.894531 774.65625 149.894531 Z M 774.65625 149.894531 "/>
<path style=" stroke:none;fill-rule:nonzero;fill:rgb(96.859741%,75.689697%,3.138733%);fill-opacity:1;" d="M 787.78125 179.953125 C 788.59375 180.589844 789.320312 181.136719 790.132812 181.683594 C 790.40625 182.046875 790.679688 182.414062 791.039062 182.777344 C 791.222656 182.960938 791.402344 183.234375 791.585938 183.414062 C 791.855469 183.6875 790.679688 182.230469 790.949219 182.503906 C 795.027344 186.878906 802.726562 192.4375 806.351562 195.808594 C 807.164062 196.628906 808.34375 197.085938 809.519531 197.269531 C 810.699219 197.449219 812.058594 197.269531 812.78125 196.355469 C 814.683594 194.078125 811.695312 191.800781 810.425781 190.25 C 808.796875 188.335938 807.617188 186.058594 806.257812 183.960938 C 805.355469 182.867188 804.539062 181.59375 803.632812 180.40625 C 802.816406 179.3125 802 178.21875 801.097656 177.125 C 799.738281 175.484375 798.378906 173.9375 796.929688 172.476562 L 796.386719 171.929688 C 795.207031 170.746094 793.941406 169.46875 792.671875 168.285156 C 791.039062 169.5625 789.773438 171.019531 788.957031 173.023438 C 788.140625 175.03125 787.328125 177.671875 787.78125 179.953125 Z M 787.78125 179.953125 "/>
<path style=" stroke:none;fill-rule:nonzero;fill:rgb(8.239746%,0%,46.669006%);fill-opacity:1;" d="M 791.3125 176.488281 L 791.402344 182.777344 C 791.585938 182.960938 791.765625 183.234375 791.945312 183.414062 C 792.21875 183.6875 792.488281 184.054688 792.761719 184.328125 L 797.292969 172.476562 L 796.746094 171.929688 Z M 791.3125 176.488281 "/>
<path style=" stroke:none;fill-rule:nonzero;fill:rgb(96.859741%,75.689697%,3.138733%);fill-opacity:1;" d="M 767.578125 196.175781 C 764.679688 196.175781 761.691406 197.90625 758.789062 198.363281 C 757.25 198.636719 755.4375 198.726562 754.261719 197.542969 C 753.71875 196.996094 753.445312 196.175781 753.175781 195.355469 C 751.179688 188.792969 750.910156 181.410156 752.8125 174.757812 C 754.894531 167.558594 759.152344 169.742188 761.597656 175.578125 C 763.863281 181.046875 764.769531 187.152344 766.402344 192.800781 C 766.851562 193.988281 767.214844 195.082031 767.578125 196.175781 Z M 767.578125 196.175781 "/>
<path style=" stroke:none;fill-rule:nonzero;fill:rgb(96.859741%,75.689697%,3.138733%);fill-opacity:1;" d="M 777.722656 210.210938 C 777.816406 210.210938 777.816406 210.300781 777.90625 210.300781 C 777.816406 210.210938 777.816406 210.210938 777.722656 210.210938 C 777.722656 210.117188 777.722656 210.117188 777.722656 210.210938 Z M 777.722656 210.210938 "/>
<path style=" stroke:none;fill-rule:nonzero;fill:rgb(63.139343%,86.268616%,100%);fill-opacity:1;" d="M 797.5625 171.382812 L 790.226562 163.820312 C 788.59375 162.089844 785.96875 161.632812 783.882812 162.726562 C 777.632812 165.917969 771.382812 163.730469 768.484375 162.269531 C 767.035156 161.542969 765.3125 161.542969 763.953125 162.453125 C 759.96875 164.824219 755.347656 169.742188 753.808594 171.382812 C 753.535156 171.65625 753.628906 172.113281 753.988281 172.296875 L 762.414062 177.308594 L 761.144531 192.164062 C 761.144531 192.164062 774.101562 195.261719 791.675781 191.34375 L 791.765625 176.304688 L 797.5625 172.203125 C 797.746094 172.023438 797.835938 171.566406 797.5625 171.382812 Z M 797.5625 171.382812 "/>
<path style=" stroke:none;fill-rule:nonzero;fill:rgb(13.729858%,0%,69.40918%);fill-opacity:1;" d="M 834.070312 178.3125 L 829.992188 199.183594 L 785.152344 199.183594 C 784.878906 199.183594 784.699219 199 784.699219 198.726562 L 784.699219 197.90625 C 784.699219 197.632812 784.878906 197.449219 785.152344 197.449219 L 800.550781 197.449219 L 804.265625 178.402344 C 804.355469 178.128906 804.539062 177.945312 804.808594 177.945312 L 833.527344 177.492188 C 833.890625 177.492188 834.25 177.855469 834.070312 178.3125 Z M 834.070312 178.3125 "/>
<path style=" stroke:none;fill-rule:nonzero;fill:rgb(100%,100%,100%);fill-opacity:1;" d="M 819.125 188.519531 C 819.125 188.699219 819.089844 188.875 819.019531 189.042969 C 818.949219 189.210938 818.851562 189.355469 818.726562 189.484375 C 818.597656 189.613281 818.449219 189.710938 818.285156 189.78125 C 818.117188 189.851562 817.945312 189.886719 817.765625 189.886719 C 817.585938 189.886719 817.410156 189.851562 817.246094 189.78125 C 817.078125 189.710938 816.929688 189.613281 816.804688 189.484375 C 816.675781 189.355469 816.578125 189.210938 816.507812 189.042969 C 816.441406 188.875 816.40625 188.699219 816.40625 188.519531 C 816.40625 188.335938 816.441406 188.164062 816.507812 187.996094 C 816.578125 187.828125 816.675781 187.679688 816.804688 187.550781 C 816.929688 187.421875 817.078125 187.324219 817.246094 187.253906 C 817.410156 187.1875 817.585938 187.152344 817.765625 187.152344 C 817.945312 187.152344 818.117188 187.1875 818.285156 187.253906 C 818.449219 187.324219 818.597656 187.421875 818.726562 187.550781 C 818.851562 187.679688 818.949219 187.828125 819.019531 187.996094 C 819.089844 188.164062 819.125 188.335938 819.125 188.519531 Z M 819.125 188.519531 "/>
<path style=" stroke:none;fill-rule:nonzero;fill:rgb(96.859741%,75.689697%,3.138733%);fill-opacity:1;" d="M 757.976562 189.429688 C 755.800781 188.792969 753.71875 190.796875 754.261719 192.984375 C 754.625 194.714844 755.167969 196.449219 755.710938 198.179688 C 756.980469 198.453125 758.246094 198.726562 759.695312 198.816406 C 761.78125 199 763.773438 199 765.855469 198.816406 C 767.757812 198.726562 769.570312 198.453125 771.382812 197.996094 C 775.730469 197.085938 780.351562 195.628906 784.878906 196.082031 C 787.328125 196.355469 789.773438 195.902344 792.308594 195.992188 C 792.308594 195.992188 792.398438 195.992188 792.398438 195.992188 C 793.214844 196.082031 794.03125 196.265625 794.753906 196.449219 C 795.296875 196.539062 795.933594 196.996094 796.476562 196.902344 C 796.65625 196.902344 796.65625 196.722656 796.476562 196.628906 C 795.117188 195.992188 793.394531 195.261719 791.945312 195.082031 C 791.855469 195.082031 791.765625 194.988281 791.765625 194.898438 C 791.765625 194.808594 791.855469 194.714844 791.945312 194.714844 C 793.578125 194.898438 795.480469 195.71875 796.929688 196.449219 C 797.019531 196.449219 797.109375 196.449219 797.109375 196.449219 C 797.199219 196.355469 797.292969 196.265625 797.292969 196.175781 C 797.382812 196.082031 797.292969 195.992188 797.199219 195.902344 C 795.75 195.082031 794.03125 194.441406 791.945312 193.988281 C 791.855469 193.988281 791.765625 193.894531 791.765625 193.804688 C 791.765625 193.714844 791.855469 193.621094 791.945312 193.714844 C 794.03125 194.167969 795.84375 194.898438 797.292969 195.71875 C 797.382812 195.808594 797.472656 195.71875 797.5625 195.628906 C 797.5625 195.535156 797.652344 195.535156 797.652344 195.445312 C 797.652344 195.355469 797.652344 195.261719 797.5625 195.261719 C 795.933594 194.261719 794.121094 193.441406 792.21875 192.984375 C 792.128906 192.984375 792.039062 192.894531 792.039062 192.800781 C 792.039062 192.710938 792.128906 192.621094 792.21875 192.710938 C 794.03125 193.167969 795.75 193.894531 797.382812 194.808594 C 797.472656 194.898438 797.652344 194.808594 797.652344 194.625 C 797.5625 194.351562 797.019531 193.988281 796.839844 193.804688 C 795.570312 192.800781 793.667969 191.890625 791.855469 191.34375 C 791.3125 191.160156 790.769531 190.980469 790.226562 190.886719 C 787.871094 190.339844 785.425781 190.796875 783.070312 190.707031 C 779.535156 190.613281 775.914062 190.523438 772.378906 190.523438 C 770.566406 190.523438 768.847656 190.523438 767.035156 190.613281 C 766.402344 190.613281 765.765625 190.613281 765.132812 190.613281 C 764.5 190.613281 760.511719 190.160156 759.242188 189.703125 C 758.789062 189.703125 758.429688 189.613281 757.976562 189.429688 Z M 766.671875 191.253906 C 766.582031 191.253906 766.582031 191.253906 766.492188 191.253906 C 766.492188 191.253906 766.402344 191.253906 766.402344 191.253906 C 766.492188 191.253906 766.582031 191.253906 766.671875 191.253906 Z M 766.671875 191.253906 "/>
<path style=" stroke:none;fill-rule:nonzero;fill:rgb(63.139343%,86.268616%,100%);fill-opacity:1;" d="M 979.554688 158.808594 C 979.828125 158.167969 979.828125 158.261719 979.554688 158.808594 Z M 979.554688 158.808594 "/>
<path style=" stroke:none;fill-rule:nonzero;fill:rgb(100%,63.919067%,0%);fill-opacity:1;" d="M 984.265625 157.714844 L 983.90625 157.621094 C 984.085938 156.894531 983.996094 155.800781 983.542969 155.070312 C 983.269531 154.613281 982.816406 154.339844 982.273438 154.25 L 982.363281 153.976562 C 983 154.066406 983.453125 154.433594 983.8125 154.980469 C 984.359375 155.800781 984.449219 156.984375 984.265625 157.714844 Z M 984.265625 157.714844 "/>
<path style=" stroke:none;fill-rule:nonzero;fill:rgb(8.239746%,0%,46.669006%);fill-opacity:1;" d="M 904.640625 167.738281 L 888.515625 167.738281 L 883.621094 144.953125 L 899.746094 144.953125 Z M 904.640625 167.738281 "/>
<path style=" stroke:none;fill-rule:nonzero;fill:rgb(63.139343%,86.268616%,100%);fill-opacity:1;" d="M 903.191406 167.738281 L 888.425781 167.738281 C 888.152344 167.738281 887.878906 167.558594 887.789062 167.191406 L 883.167969 145.773438 C 883.078125 145.320312 883.351562 144.953125 883.804688 144.953125 L 898.570312 144.953125 C 898.839844 144.953125 899.113281 145.136719 899.203125 145.5 L 903.824219 167.011719 C 903.914062 167.375 903.550781 167.738281 903.191406 167.738281 Z M 903.191406 167.738281 "/>
<path style=" stroke:none;fill-rule:nonzero;fill:rgb(96.859741%,75.689697%,3.138733%);fill-opacity:1;" d="M 897.03125 152.972656 C 897.300781 153.066406 897.84375 153.429688 898.027344 153.703125 C 898.117188 153.886719 897.9375 153.976562 897.753906 153.886719 C 895.851562 153.15625 893.949219 152.699219 891.867188 152.519531 C 891.777344 152.519531 891.683594 152.609375 891.683594 152.699219 C 891.683594 152.792969 891.777344 152.882812 891.867188 152.882812 C 893.949219 152.972656 896.035156 153.519531 897.9375 154.339844 C 898.027344 154.339844 898.027344 154.433594 898.027344 154.523438 C 898.027344 154.613281 898.027344 154.613281 898.027344 154.707031 C 898.027344 154.796875 897.84375 154.886719 897.753906 154.796875 C 896.035156 154.160156 894.039062 153.792969 891.683594 153.613281 C 891.59375 153.613281 891.503906 153.703125 891.503906 153.792969 C 891.503906 153.886719 891.59375 153.976562 891.683594 153.976562 C 893.949219 154.160156 895.941406 154.523438 897.574219 155.160156 C 897.664062 155.160156 897.753906 155.34375 897.664062 155.433594 C 897.574219 155.527344 897.574219 155.617188 897.484375 155.707031 C 897.484375 155.800781 897.390625 155.800781 897.300781 155.800781 C 895.582031 155.253906 893.40625 154.796875 891.59375 154.796875 C 891.503906 154.796875 891.414062 154.886719 891.414062 154.980469 C 891.414062 155.070312 891.503906 155.160156 891.59375 155.160156 C 893.226562 155.070312 895.128906 155.527344 896.667969 155.980469 C 896.847656 156.074219 896.847656 156.253906 896.667969 156.253906 C 896.125 156.4375 895.308594 156.164062 894.765625 156.074219 C 891.683594 155.800781 889.601562 155.800781 887.246094 157.621094 C 885.433594 158.988281 882.082031 163.089844 880.996094 158.441406 C 880.542969 156.347656 883.351562 152.792969 885.164062 151.882812 C 888.875 150.332031 893.679688 151.335938 897.03125 152.972656 Z M 897.03125 152.972656 "/>
<path style=" stroke:none;fill-rule:nonzero;fill:rgb(97.24884%,76.078796%,3.138733%);fill-opacity:1;" d="M 909.351562 211.03125 C 906.269531 211.394531 903.824219 213.855469 903.734375 217.042969 C 903.644531 220.507812 906.449219 223.332031 909.804688 223.332031 L 948.9375 223.332031 C 953.105469 223.332031 956.457031 219.871094 956.457031 215.769531 L 956.457031 211.121094 L 909.351562 211.121094 Z M 909.351562 211.03125 "/>
<path style=" stroke:none;fill-rule:nonzero;fill:rgb(8.239746%,0%,46.669006%);fill-opacity:1;" d="M 775.820312 143.40625 C 776.273438 146.503906 774.191406 147.050781 772.199219 147.050781 C 770.207031 147.050781 768.574219 145.410156 768.574219 143.40625 C 768.574219 141.398438 770.207031 139.757812 772.199219 139.757812 C 774.191406 139.757812 775.550781 141.398438 775.820312 143.40625 Z M 775.820312 143.40625 "/>
<path style=" stroke:none;fill-rule:nonzero;fill:rgb(52.938843%,41.178894%,72.158813%);fill-opacity:1;" d="M 779.535156 217.042969 C 779.625 220.507812 776.816406 223.242188 773.464844 223.242188 L 751.726562 223.242188 C 747.558594 223.242188 744.023438 219.777344 744.023438 215.679688 L 744.023438 169.652344 C 744.023438 167.558594 745.472656 165.824219 747.375 165.1875 C 749.460938 165.734375 751.273438 167.558594 751.273438 169.652344 L 751.273438 211.03125 L 773.285156 211.03125 C 776.546875 211.03125 779.445312 213.671875 779.535156 217.042969 Z M 779.535156 217.042969 "/>
<path style=" stroke:none;fill-rule:nonzero;fill:rgb(93.328857%,50.19989%,74.508667%);fill-opacity:1;" d="M 845.757812 199.089844 L 846.117188 194.898438 L 846.753906 189.066406 L 847.207031 185.328125 L 836.878906 186.332031 L 838.238281 199.089844 Z M 845.757812 199.089844 "/>
<path style=" stroke:none;fill-rule:nonzero;fill:rgb(8.239746%,12.548828%,23.919678%);fill-opacity:1;" d="M 836.152344 185.144531 L 847.839844 185.144531 L 847.839844 186.695312 L 836.152344 186.695312 Z M 836.152344 185.144531 "/>
<path style=" stroke:none;fill-rule:nonzero;fill:rgb(8.239746%,12.548828%,23.919678%);fill-opacity:1;" d="M 846.027344 185.144531 L 837.964844 185.144531 L 838.691406 184.054688 L 845.304688 184.054688 Z M 846.027344 185.144531 "/>
<path style=" stroke:none;fill-rule:nonzero;fill:rgb(96.859741%,75.689697%,3.138733%);fill-opacity:1;" d="M 846.753906 188.972656 L 846.117188 194.808594 C 844.667969 194.625 843.492188 193.441406 843.492188 191.890625 C 843.492188 190.25 844.761719 188.972656 846.390625 188.972656 C 846.570312 188.972656 846.664062 188.972656 846.753906 188.972656 Z M 846.753906 188.972656 "/>
<g clip-path="url(#clip14)" clip-rule="nonzero">
<path style=" stroke:none;fill-rule:nonzero;fill:rgb(63.139343%,86.268616%,100%);fill-opacity:1;" d="M 968.269531 203.324219 L 730.292969 203.324219 L 730.292969 198.949219 L 968.269531 198.949219 Z M 968.269531 203.324219 "/>
</g>
<path style=" stroke:none;fill-rule:nonzero;fill:rgb(63.139343%,86.268616%,100%);fill-opacity:1;" d="M 967.90625 268.792969 L 965.367188 268.792969 L 965.367188 202.261719 L 967.90625 202.261719 Z M 967.90625 268.792969 "/>
<g clip-path="url(#clip15)" clip-rule="nonzero">
<path style=" stroke:none;fill-rule:nonzero;fill:rgb(63.139343%,86.268616%,100%);fill-opacity:1;" d="M 732.8125 268.792969 L 730.273438 268.792969 L 730.273438 202.261719 L 732.8125 202.261719 Z M 732.8125 268.792969 "/>
</g>
<g clip-path="url(#clip16)" clip-rule="nonzero">
<path style=" stroke:none;fill-rule:nonzero;fill:rgb(92.939758%,70.199585%,45.098877%);fill-opacity:1;" d="M 307.488281 265.789062 C 306.796875 263.792969 306.0625 261.839844 305.757812 259.757812 C 305.152344 255.722656 306.234375 251.640625 306.40625 247.5625 C 306.582031 243.484375 305.414062 238.839844 301.820312 236.886719 C 300.433594 236.105469 298.789062 235.847656 297.492188 234.9375 C 294.894531 233.113281 294.460938 229.46875 294.289062 226.300781 C 294.117188 223.480469 293.941406 220.660156 293.8125 217.839844 C 293.640625 215.105469 292.816406 211.632812 290.089844 211.328125 C 288.921875 211.199219 287.753906 211.808594 286.84375 212.546875 C 279.355469 218.1875 281.261719 230.683594 274.769531 237.496094 C 269.792969 242.789062 265.203125 248.039062 268.710938 255.980469 C 269.707031 258.195312 271.351562 260.277344 271.523438 262.664062 C 271.566406 263.097656 271.566406 263.574219 271.695312 263.964844 C 267.671875 268.695312 263.429688 272.210938 264.164062 279.109375 C 264.683594 283.882812 267.757812 288.308594 272.042969 290.433594 C 275.203125 291.996094 278.792969 292.34375 282.34375 292.691406 C 292.125 293.601562 303.378906 292.820312 307.664062 282.277344 C 309.523438 277.722656 309.4375 272.472656 308.050781 267.742188 C 307.921875 267.089844 307.707031 266.4375 307.488281 265.789062 Z M 307.488281 265.789062 "/>
</g>
<path style=" stroke:none;fill-rule:nonzero;fill:rgb(90.979004%,46.269226%,32.939148%);fill-opacity:1;" d="M 273.730469 263.011719 C 272.476562 261.40625 271.132812 259.886719 270.746094 257.933594 C 269.921875 254.027344 273.125 249.90625 271.828125 246.085938 C 270.050781 240.925781 264.339844 240.273438 265.03125 233.9375 C 265.289062 231.550781 265.203125 229.121094 264.769531 226.777344 C 264.554688 225.476562 264.121094 224.042969 262.953125 223.351562 C 261.265625 222.308594 258.972656 223.523438 258.148438 225.300781 C 257.328125 227.082031 257.542969 229.164062 257.804688 231.117188 C 258.0625 233.070312 258.277344 235.152344 257.5 236.933594 C 256.765625 238.582031 255.207031 239.796875 254.339844 241.402344 C 252.738281 244.394531 253.90625 248.257812 252.523438 251.382812 C 251.484375 253.726562 249.40625 254.636719 247.71875 256.328125 C 246.421875 257.628906 245.121094 259.28125 243.996094 260.796875 C 241.3125 264.441406 239.886719 269.085938 240.144531 273.640625 C 240.535156 279.71875 243.910156 285.53125 248.972656 288.828125 C 252.957031 291.433594 258.019531 292.476562 262.605469 291.214844 C 264.640625 290.652344 266.546875 289.699219 268.191406 288.351562 C 269.921875 286.921875 271.351562 285.140625 272.605469 283.277344 C 274.421875 280.585938 275.894531 277.589844 276.5 274.421875 C 277.105469 271.253906 276.761719 267.785156 275.117188 264.964844 C 274.726562 264.3125 274.25 263.660156 273.730469 263.011719 Z M 273.730469 263.011719 "/>
<path style=" stroke:none;fill-rule:nonzero;fill:rgb(92.939758%,70.199585%,45.098877%);fill-opacity:1;" d="M 266.761719 265.007812 L 266.285156 264.53125 L 259.835938 270.996094 L 259.835938 265.398438 L 259.878906 265.3125 L 259.835938 265.265625 L 259.835938 259.625 L 259.1875 259.625 L 259.1875 264.617188 L 254.644531 260.105469 L 254.167969 260.582031 L 259.1875 265.570312 L 259.1875 271.644531 L 259.015625 271.820312 L 259.1875 271.992188 L 259.1875 278.847656 L 252.175781 271.863281 L 251.699219 272.296875 L 259.015625 279.585938 L 259.1875 279.457031 L 259.1875 303.148438 L 259.835938 303.148438 L 259.835938 271.949219 Z M 266.761719 265.007812 "/>
<path style=" stroke:none;fill-rule:nonzero;fill:rgb(90.979004%,46.269226%,32.939148%);fill-opacity:1;" d="M 285.328125 253.117188 L 286.324219 253.117188 L 286.324219 305.101562 L 285.328125 305.101562 Z M 285.328125 253.117188 "/>
<g clip-path="url(#clip17)" clip-rule="nonzero">
<path style=" stroke:none;fill-rule:nonzero;fill:rgb(92.939758%,70.199585%,45.098877%);fill-opacity:1;" d="M 414.585938 245.097656 C 413.519531 242.027344 412.382812 239.027344 411.917969 235.824219 C 410.984375 229.621094 412.652344 223.347656 412.917969 217.078125 C 413.183594 210.804688 411.382812 203.667969 405.851562 200.664062 C 403.71875 199.464844 401.183594 199.0625 399.183594 197.660156 C 395.183594 194.859375 394.515625 189.253906 394.25 184.386719 C 393.980469 180.046875 393.714844 175.710938 393.515625 171.375 C 393.25 167.171875 391.980469 161.835938 387.78125 161.367188 C 385.980469 161.167969 384.179688 162.101562 382.78125 163.234375 C 371.246094 171.910156 374.179688 191.125 364.179688 201.597656 C 356.511719 209.738281 349.441406 217.808594 354.84375 230.019531 C 356.378906 233.421875 358.910156 236.625 359.175781 240.292969 C 359.246094 240.960938 359.246094 241.695312 359.445312 242.296875 C 353.242188 249.566406 346.710938 254.972656 347.84375 265.578125 C 348.644531 272.917969 353.375 279.722656 359.976562 282.992188 C 364.84375 285.394531 370.378906 285.929688 375.847656 286.460938 C 390.914062 287.863281 408.25 286.664062 414.851562 270.449219 C 417.71875 263.445312 417.585938 255.371094 415.453125 248.101562 C 415.25 247.097656 414.917969 246.097656 414.585938 245.097656 Z M 414.585938 245.097656 "/>
</g>
<g clip-path="url(#clip18)" clip-rule="nonzero">
<path style=" stroke:none;fill-rule:nonzero;fill:rgb(90.979004%,46.269226%,32.939148%);fill-opacity:1;" d="M 362.578125 240.828125 C 360.644531 238.359375 358.578125 236.023438 357.976562 233.023438 C 356.710938 227.015625 361.644531 220.679688 359.644531 214.808594 C 356.910156 206.867188 348.109375 205.867188 349.175781 196.128906 C 349.578125 192.457031 349.441406 188.722656 348.777344 185.117188 C 348.441406 183.117188 347.777344 180.914062 345.976562 179.847656 C 343.375 178.246094 339.839844 180.113281 338.574219 182.851562 C 337.308594 185.585938 337.640625 188.789062 338.042969 191.789062 C 338.441406 194.792969 338.773438 197.996094 337.574219 200.730469 C 336.441406 203.265625 334.039062 205.132812 332.707031 207.601562 C 330.238281 212.207031 332.039062 218.144531 329.90625 222.949219 C 328.304688 226.550781 325.105469 227.953125 322.503906 230.554688 C 320.503906 232.554688 318.503906 235.089844 316.773438 237.425781 C 312.636719 243.03125 310.4375 250.167969 310.835938 257.171875 C 311.4375 266.515625 316.636719 275.453125 324.4375 280.523438 C 330.574219 284.527344 338.375 286.128906 345.441406 284.195312 C 348.574219 283.328125 351.511719 281.859375 354.042969 279.789062 C 356.710938 277.589844 358.910156 274.851562 360.84375 271.984375 C 363.644531 267.847656 365.910156 263.246094 366.84375 258.375 C 367.777344 253.503906 367.246094 248.167969 364.710938 243.828125 C 364.113281 242.828125 363.378906 241.828125 362.578125 240.828125 Z M 362.578125 240.828125 "/>
</g>
<path style=" stroke:none;fill-rule:nonzero;fill:rgb(92.939758%,70.199585%,45.098877%);fill-opacity:1;" d="M 351.84375 243.898438 L 351.109375 243.164062 L 341.175781 253.105469 L 341.175781 244.496094 L 341.242188 244.363281 L 341.175781 244.296875 L 341.175781 235.625 L 340.175781 235.625 L 340.175781 243.296875 L 333.175781 236.359375 L 332.441406 237.089844 L 340.175781 244.765625 L 340.175781 254.105469 L 339.90625 254.371094 L 340.175781 254.636719 L 340.175781 265.179688 L 329.375 254.4375 L 328.640625 255.105469 L 339.90625 266.3125 L 340.175781 266.113281 L 340.175781 302.542969 L 341.175781 302.542969 L 341.175781 254.570312 Z M 351.84375 243.898438 "/>
<path style=" stroke:none;fill-rule:nonzero;fill:rgb(90.979004%,46.269226%,32.939148%);fill-opacity:1;" d="M 380.445312 225.617188 L 381.980469 225.617188 L 381.980469 305.542969 L 380.445312 305.542969 Z M 380.445312 225.617188 "/>
<g clip-path="url(#clip19)" clip-rule="nonzero">
<path style=" stroke:none;fill-rule:nonzero;fill:rgb(92.939758%,70.199585%,45.098877%);fill-opacity:1;" d="M 488.132812 258.238281 C 487.4375 256.207031 486.695312 254.222656 486.390625 252.105469 C 485.78125 248 486.871094 243.851562 487.042969 239.703125 C 487.21875 235.558594 486.042969 230.835938 482.425781 228.851562 C 481.03125 228.054688 479.378906 227.792969 478.070312 226.863281 C 475.457031 225.011719 475.023438 221.304688 474.847656 218.082031 C 474.671875 215.214844 474.5 212.347656 474.367188 209.480469 C 474.195312 206.699219 473.367188 203.167969 470.621094 202.859375 C 469.445312 202.730469 468.269531 203.347656 467.355469 204.097656 C 459.820312 209.832031 461.734375 222.539062 455.203125 229.46875 C 450.191406 234.851562 445.574219 240.191406 449.105469 248.265625 C 450.105469 250.515625 451.761719 252.632812 451.933594 255.058594 C 451.980469 255.5 451.980469 255.988281 452.109375 256.382812 C 448.058594 261.191406 443.789062 264.765625 444.53125 271.78125 C 445.054688 276.636719 448.144531 281.136719 452.457031 283.300781 C 455.636719 284.886719 459.253906 285.242188 462.824219 285.59375 C 472.667969 286.519531 483.996094 285.726562 488.308594 275.003906 C 490.179688 270.371094 490.09375 265.03125 488.699219 260.222656 C 488.570312 259.5625 488.351562 258.898438 488.132812 258.238281 Z M 488.132812 258.238281 "/>
</g>
<g clip-path="url(#clip20)" clip-rule="nonzero">
<path style=" stroke:none;fill-rule:nonzero;fill:rgb(90.979004%,46.269226%,32.939148%);fill-opacity:1;" d="M 454.15625 255.414062 C 452.894531 253.78125 451.542969 252.234375 451.152344 250.25 C 450.324219 246.277344 453.546875 242.085938 452.238281 238.203125 C 450.453125 232.953125 444.703125 232.292969 445.402344 225.851562 C 445.664062 223.421875 445.574219 220.953125 445.140625 218.570312 C 444.921875 217.246094 444.488281 215.789062 443.308594 215.082031 C 441.613281 214.023438 439.304688 215.261719 438.476562 217.070312 C 437.648438 218.878906 437.867188 220.996094 438.125 222.980469 C 438.386719 224.96875 438.605469 227.085938 437.820312 228.894531 C 437.082031 230.570312 435.511719 231.804688 434.640625 233.4375 C 433.03125 236.484375 434.207031 240.410156 432.8125 243.585938 C 431.765625 245.96875 429.675781 246.898438 427.976562 248.617188 C 426.671875 249.941406 425.363281 251.617188 424.230469 253.164062 C 421.53125 256.867188 420.09375 261.589844 420.355469 266.222656 C 420.746094 272.402344 424.144531 278.3125 429.242188 281.667969 C 433.25 284.3125 438.34375 285.375 442.960938 284.09375 C 445.007812 283.519531 446.925781 282.550781 448.582031 281.179688 C 450.324219 279.726562 451.761719 277.917969 453.023438 276.019531 C 454.855469 273.285156 456.335938 270.238281 456.945312 267.019531 C 457.554688 263.796875 457.207031 260.265625 455.550781 257.398438 C 455.160156 256.738281 454.679688 256.074219 454.15625 255.414062 Z M 454.15625 255.414062 "/>
</g>
<path style=" stroke:none;fill-rule:nonzero;fill:rgb(92.939758%,70.199585%,45.098877%);fill-opacity:1;" d="M 447.144531 257.441406 L 446.664062 256.957031 L 440.175781 263.53125 L 440.175781 257.839844 L 440.21875 257.75 L 440.175781 257.707031 L 440.175781 251.972656 L 439.519531 251.972656 L 439.519531 257.046875 L 434.945312 252.457031 L 434.46875 252.941406 L 439.519531 258.015625 L 439.519531 264.195312 L 439.347656 264.371094 L 439.519531 264.546875 L 439.519531 271.519531 L 432.464844 264.414062 L 431.984375 264.855469 L 439.347656 272.269531 L 439.519531 272.136719 L 439.519531 296.226562 L 440.175781 296.226562 L 440.175781 264.503906 Z M 447.144531 257.441406 "/>
<g clip-path="url(#clip21)" clip-rule="nonzero">
<path style=" stroke:none;fill-rule:nonzero;fill:rgb(90.979004%,46.269226%,32.939148%);fill-opacity:1;" d="M 465.832031 245.351562 L 466.832031 245.351562 L 466.832031 298.214844 L 465.832031 298.214844 Z M 465.832031 245.351562 "/>
</g>
</g>
</svg>
